<!-- icon666.com - MILLIONS vector ICONS FREE --><svg enable-background="new 0 0 24 24" viewBox="0 0 24 24" xmlns="http://www.w3.org/2000/svg" xmlns:xlink="http://www.w3.org/1999/xlink"><symbol id="material_x5F_system_x5F_icon_x5F_border" viewBox="0 -48 48 48"><path d="m0-48h48v48h-48z" fill="none"></path></symbol><symbol id="material_x5F_system_x5F_icon_x5F_grid" viewBox="-.0002 -48 48.0002 48.0002"><g><g clip-path="url(#SVGID_2_)"><g><path d="m2-48v48" fill="none" stroke="#000" stroke-miterlimit="10" stroke-width=".25"></path><path d="m4-48v48" fill="none" stroke="#000" stroke-miterlimit="10" stroke-width=".25"></path><path d="m6-48v48" fill="none" stroke="#000" stroke-miterlimit="10" stroke-width=".25"></path><path d="m8-48v48" fill="none" stroke="#000" stroke-miterlimit="10" stroke-width=".25"></path><path d="m10-48v48" fill="none" stroke="#000" stroke-miterlimit="10" stroke-width=".25"></path><path d="m12-48v48" fill="none" stroke="#000" stroke-miterlimit="10" stroke-width=".25"></path><path d="m14-48v48" fill="none" stroke="#000" stroke-miterlimit="10" stroke-width=".25"></path><path d="m16-48v48" fill="none" stroke="#000" stroke-miterlimit="10" stroke-width=".25"></path><path d="m18-48v48" fill="none" stroke="#000" stroke-miterlimit="10" stroke-width=".25"></path><path d="m20-48v48" fill="none" stroke="#000" stroke-miterlimit="10" stroke-width=".25"></path><path d="m22-48v48" fill="none" stroke="#000" stroke-miterlimit="10" stroke-width=".25"></path><path d="m24-48v48" fill="none" stroke="#000" stroke-miterlimit="10" stroke-width=".25"></path><path d="m26-48v48" fill="none" stroke="#000" stroke-miterlimit="10" stroke-width=".25"></path><path d="m28-48v48" fill="none" stroke="#000" stroke-miterlimit="10" stroke-width=".25"></path><path d="m30-48v48" fill="none" stroke="#000" stroke-miterlimit="10" stroke-width=".25"></path><path d="m32-48v48" fill="none" stroke="#000" stroke-miterlimit="10" stroke-width=".25"></path><path d="m34-48v48" fill="none" stroke="#000" stroke-miterlimit="10" stroke-width=".25"></path><path d="m36-48v48" fill="none" stroke="#000" stroke-miterlimit="10" stroke-width=".25"></path><path d="m38-48v48" fill="none" stroke="#000" stroke-miterlimit="10" stroke-width=".25"></path><path d="m40-48v48" fill="none" stroke="#000" stroke-miterlimit="10" stroke-width=".25"></path><path d="m42-48v48" fill="none" stroke="#000" stroke-miterlimit="10" stroke-width=".25"></path><path d="m44-48v48" fill="none" stroke="#000" stroke-miterlimit="10" stroke-width=".25"></path><path d="m46-48v48" fill="none" stroke="#000" stroke-miterlimit="10" stroke-width=".25"></path></g><g><path d="m0-2h48" fill="none" stroke="#000" stroke-miterlimit="10" stroke-width=".25"></path><path d="m0-4h48" fill="none" stroke="#000" stroke-miterlimit="10" stroke-width=".25"></path><path d="m0-6h48" fill="none" stroke="#000" stroke-miterlimit="10" stroke-width=".25"></path><path d="m0-8h48" fill="none" stroke="#000" stroke-miterlimit="10" stroke-width=".25"></path><path d="m0-10h48" fill="none" stroke="#000" stroke-miterlimit="10" stroke-width=".25"></path><path d="m0-12h48" fill="none" stroke="#000" stroke-miterlimit="10" stroke-width=".25"></path><path d="m0-14h48" fill="none" stroke="#000" stroke-miterlimit="10" stroke-width=".25"></path><path d="m0-16h48" fill="none" stroke="#000" stroke-miterlimit="10" stroke-width=".25"></path><path d="m0-18h48" fill="none" stroke="#000" stroke-miterlimit="10" stroke-width=".25"></path><path d="m0-20h48" fill="none" stroke="#000" stroke-miterlimit="10" stroke-width=".25"></path><path d="m0-22h48" fill="none" stroke="#000" stroke-miterlimit="10" stroke-width=".25"></path><path d="m0-24h48" fill="none" stroke="#000" stroke-miterlimit="10" stroke-width=".25"></path><path d="m0-26h48" fill="none" stroke="#000" stroke-miterlimit="10" stroke-width=".25"></path><path d="m0-28h48" fill="none" stroke="#000" stroke-miterlimit="10" stroke-width=".25"></path><path d="m0-30h48" fill="none" stroke="#000" stroke-miterlimit="10" stroke-width=".25"></path><path d="m0-32h48" fill="none" stroke="#000" stroke-miterlimit="10" stroke-width=".25"></path><path d="m0-34h48" fill="none" stroke="#000" stroke-miterlimit="10" stroke-width=".25"></path><path d="m0-36h48" fill="none" stroke="#000" stroke-miterlimit="10" stroke-width=".25"></path><path d="m0-38h48" fill="none" stroke="#000" stroke-miterlimit="10" stroke-width=".25"></path><path d="m0-40h48" fill="none" stroke="#000" stroke-miterlimit="10" stroke-width=".25"></path><path d="m0-42h48" fill="none" stroke="#000" stroke-miterlimit="10" stroke-width=".25"></path><path d="m0-44h48" fill="none" stroke="#000" stroke-miterlimit="10" stroke-width=".25"></path><path d="m0-46h48" fill="none" stroke="#000" stroke-miterlimit="10" stroke-width=".25"></path></g><g><path d="m47.75-.25v-47.5h-47.5v47.5zm.25.25h-48v-48h48z" fill="#000000" style="fill: rgb(255, 221, 0);"></path></g></g></g></symbol><clipPath id="SVGID_2_"><path id="SVGID_1_" d="m0-48h48v48h-48z" fill="#000000" style="fill: rgb(255, 221, 0);"></path></clipPath><symbol id="material_x5F_system_x5F_icon_x5F_keylines" viewBox="-.0002 -48.0001 48.0002 48.0001"><g opacity=".4"><path clip-path="url(#SVGID_4_)" d="m24 0v-48" fill="none" stroke="#000" stroke-miterlimit="10" stroke-width=".25"></path><path clip-path="url(#SVGID_4_)" d="m48-24h-48" fill="none" stroke="#000" stroke-miterlimit="10" stroke-width=".25"></path><path clip-path="url(#SVGID_4_)" d="m48-16h-48" fill="none" stroke="#000" stroke-miterlimit="10" stroke-width=".25"></path><path clip-path="url(#SVGID_4_)" d="m48-32h-48" fill="none" stroke="#000" stroke-miterlimit="10" stroke-width=".25"></path><path clip-path="url(#SVGID_4_)" d="m32-48v48" fill="none" stroke="#000" stroke-miterlimit="10" stroke-width=".25"></path><path clip-path="url(#SVGID_4_)" d="m16-48v48" fill="none" stroke="#000" stroke-miterlimit="10" stroke-width=".25"></path><path clip-path="url(#SVGID_4_)" d="m47.75-.25-47.5-47.5" fill="none" stroke="#000" stroke-miterlimit="10" stroke-width=".25"></path><path clip-path="url(#SVGID_4_)" d="m.25-.25 47.5-47.5" fill="none" stroke="#000" stroke-miterlimit="10" stroke-width=".25"></path><path clip-path="url(#SVGID_4_)" d="m24.0005-13.9999c-5.5225 0-10.0001-4.477-10.0001-9.9999 0-5.5225 4.4775-10.0001 10.0001-10.0001 5.5224 0 9.9999 4.4775 9.9999 10.0001 0 5.523-4.4775 9.9999-9.9999 9.9999z" fill="none" stroke="#000" stroke-miterlimit="10" stroke-width=".25"></path><path clip-path="url(#SVGID_4_)" d="m23.9998-4.0001c-11.0536 0-20-8.9474-20-20 0-11.0527 8.9464-20 20-20 11.0527 0 20 8.9473 20 20 0 11.0526-8.9474 20-20 20z" fill="none" stroke="#000" stroke-miterlimit="10" stroke-width=".25"></path><path clip-path="url(#SVGID_4_)" d="m37.9998-6.0001h-28c-2.211 0-4-1.791-4-4v-28c0-2.209 1.789-4 4-4h28c2.2109 0 4 1.791 4 4v28c0 2.2089-1.7891 4-4 4z" fill="none" stroke="#000" stroke-miterlimit="10" stroke-width=".25"></path><path clip-path="url(#SVGID_4_)" d="m39.9998-8.0001h-32c-2.209 0-4-1.791-4-4v-24c0-2.209 1.791-4 4-4h32c2.209 0 4.0001 1.7913 4.0001 4.0003l-.0001 23.9997c0 2.2089-1.7911 4-4 4z" fill="none" stroke="#000" stroke-miterlimit="10" stroke-width=".25"></path><path clip-path="url(#SVGID_4_)" d="m39.9998-40.0001v32c0 2.209-1.791 4-4 4h-24c-2.209 0-4-1.791-4-4v-32c0-2.209 1.791-4 4-4h24c2.2089 0 4 1.791 4 4z" fill="none" stroke="#000" stroke-miterlimit="10" stroke-width=".25"></path><g clip-path="url(#SVGID_4_)"><path d="m47.75-.25v-47.5h-47.5v47.5zm.25.25h-48v-48h48z" fill="#000000" style="fill: rgb(255, 221, 0);"></path></g></g></symbol><clipPath id="SVGID_4_"><path id="SVGID_3_" d="m0-48h48v48h-48z" fill="#000000" style="fill: rgb(255, 221, 0);"></path></clipPath><g id="Backup" display="none"><g display="inline"><path d="m4 12.0005v-.0001c-.0001-.5523.4476-1.0001.9999-1.0001l14-.0008c.5523 0 1 .4476 1.0001.9999v.0001c0 .5524-.4477 1.0002-1 1.0002l-14 .0007c-.5522.0001-1-.4476-1-.9999z" fill="#000000" style="fill: rgb(255, 221, 0);"></path></g><g display="inline"><path d="m4 7.0005v-.0001c-.0001-.5523.4476-1 .9999-1.0001l14-.0008c.5523 0 1 .4476 1.0001.9999v.0001c0 .5524-.4477 1.0002-1 1.0002l-14 .0007c-.5522.0001-1-.4476-1-.9999z" fill="#000000" style="fill: rgb(255, 221, 0);"></path></g><g display="inline"><path d="m4 17.0005v-.0001c-.0001-.5523.4476-1.0001.9999-1.0001l14-.0008c.5523 0 1 .4476 1.0001.9999v.0001c0 .5524-.4477 1.0002-1 1.0002l-14 .0007c-.5522.0001-1-.4476-1-.9999z" fill="#000000" style="fill: rgb(255, 221, 0);"></path></g></g><g id="Grid" display="none" transform="scale(.5 -.5)"><use id="XMLID_56_" display="inline" height="48" opacity=".15" width="48" xlink:href="#material_x5F_system_x5F_icon_x5F_grid" y="-48"></use><use id="XMLID_55_" display="inline" height="48" width="48" xlink:href="#material_x5F_system_x5F_icon_x5F_border" y="-48"></use></g><g id="Keyline" display="none"><use id="XMLID_20_" display="inline" height="48" transform="scale(.5 -.5)" width="48" xlink:href="#material_x5F_system_x5F_icon_x5F_keylines" y="-48"></use></g><g id="Outline" display="none"><g display="inline"><g><path d="m4 12.0005c-.0001-.5523.4477-1.0001 1-1.0002l13.9999-.0008c.5523 0 1.0001.4477 1.0001 1 .0001.5523-.4477 1.0001-1 1.0002l-13.9999.0007c-.5523.0001-1-.4476-1.0001-.9999z" fill="#000000" style="fill: rgb(255, 221, 0);"></path></g><g><path d="m4 7.0005c-.0001-.5524.4477-1.0002 1-1.0002l13.9999-.0008c.5523 0 1.0001.4477 1.0001 1 .0001.5523-.4477 1.0001-1 1.0002l-13.9999.0007c-.5523.0001-1-.4476-1.0001-.9999z" fill="#000000" style="fill: rgb(255, 221, 0);"></path></g><g><path d="m4 17.0005c-.0001-.5523.4477-1.0001 1-1.0002l13.9999-.0008c.5523 0 1.0001.4477 1.0001 1 .0001.5523-.4477 1.0001-1 1.0002l-13.9999.0007c-.5523.0001-1-.4476-1.0001-.9999z" fill="#000000" style="fill: rgb(255, 221, 0);"></path></g></g></g><g id="Filled"><g><path d="m4 12.0005v-.0001c-.0001-.5523.4476-1.0001.9999-1.0001l14-.0008c.5523 0 1 .4476 1.0001.9999v.0001c.0001.5523-.4476 1.0001-.9999 1.0001l-14 .0008c-.5523.0001-1-.4476-1.0001-.9999z" fill="#000000" style="fill: rgb(255, 221, 0);"></path><path d="m4 7.0005v-.0001c-.0001-.5523.4476-1.0001.9999-1.0001l14-.0008c.5523 0 1 .4476 1.0001.9999v.0001c.0001.5523-.4476 1.0001-.9999 1.0001l-14 .0008c-.5523.0001-1-.4476-1.0001-.9999z" fill="#000000" style="fill: rgb(255, 221, 0);"></path><path d="m4 17.0005v-.0001c-.0001-.5523.4476-1.0001.9999-1.0001l14-.0008c.5523 0 1 .4476 1.0001.9999v.0001c.0001.5523-.4476 1.0001-.9999 1.0001l-14 .0008c-.5523.0001-1-.4476-1.0001-.9999z" fill="#000000" style="fill: rgb(255, 221, 0);"></path></g></g><g id="Two_Tone" display="none"><g display="inline"><path d="m4 12.0005v-.0001c-.0001-.5523.4476-1.0001.9999-1.0001l14-.0008c.5523 0 1 .4476 1.0001.9999v.0001c.0001.5523-.4476 1.0001-.9999 1.0001l-14 .0008c-.5523.0001-1-.4476-1.0001-.9999z" fill="#000000" style="fill: rgb(255, 221, 0);"></path><g><path d="m4 7.0005v-.0001c-.0001-.5523.4476-1.0001.9999-1.0001l14-.0008c.5523 0 1 .4476 1.0001.9999v.0001c.0001.5523-.4476 1.0001-.9999 1.0001l-14 .0008c-.5523.0001-1-.4476-1.0001-.9999z" fill="#00d6a2"></path></g><g><path d="m4 17.0005v-.0001c-.0001-.5523.4476-1.0001.9999-1.0001l14-.0008c.5523 0 1 .4476 1.0001.9999v.0001c.0001.5523-.4476 1.0001-.9999 1.0001l-14 .0008c-.5523.0001-1-.4476-1.0001-.9999z" fill="#00d6a2"></path></g></g></g></svg>