<?xml version="1.0" encoding="UTF-8"?>
<svg width="16px" height="16px" viewBox="0 0 16 16" version="1.1" xmlns="http://www.w3.org/2000/svg" xmlns:xlink="http://www.w3.org/1999/xlink">
    <!-- Generator: Sketch 53.2 (72643) - https://sketchapp.com -->
    <title>Combined Shape@1x</title>
    <desc>Created with Sketch.</desc>
    <g id="Screens" stroke="none" stroke-width="1" fill="none" fill-rule="evenodd">
        <g id="Test" transform="translate(-1344.000000, -52.000000)" fill="#FFC200">
            <g id="Top" transform="translate(270.000000, 0.000000)">
                <g id="Project-Header">
                    <g transform="translate(30.000000, 35.000000)" id="Members">
                        <g transform="translate(832.000000, 9.000000)">
                            <g id="Chat-Button" transform="translate(197.000000, 1.000000)">
                                <path d="M26.0769231,12.5384615 C26.0769231,15.5972747 23.5972747,18.0769231 20.5384615,18.0769231 C19.3808352,18.0769231 18.3063385,17.7215473 17.4176527,17.1142505 L15.2352176,17.8417055 L15.9626725,15.6593055 C15.3553758,14.7705846 15,13.6960879 15,12.5384615 C15,9.47964835 17.4796484,7 20.5384615,7 C23.5972747,7 26.0769231,9.47964835 26.0769231,12.5384615 Z M31,17.4615385 C31,18.6191648 30.6446242,19.6936967 30.0373275,20.5823824 L30.7648176,22.7647824 L28.5823824,22.0373275 C27.6936615,22.6446242 26.6191648,23 25.4615385,23 C22.9810462,23 20.8819165,21.3691604 20.1766857,19.1213538 C20.296844,19.1278593 20.417389,19.1318681 20.5384615,19.1318681 C21.4280967,19.1318681 22.2916747,18.9574154 23.1052132,18.6132571 C23.8904791,18.2811253 24.5954989,17.8058725 25.2006857,17.2006857 C25.8058725,16.5954989 26.2811604,15.8904791 26.6132923,15.1052132 C26.9573802,14.2916747 27.1318681,13.4280967 27.1318681,12.5384615 C27.1318681,12.4174242 27.1283516,12.2968791 27.1218813,12.1768264 C29.3694066,12.882233 31,14.9812571 31,17.4615385 Z" id="Combined-Shape"></path>
                            </g>
                        </g>
                    </g>
                </g>
            </g>
        </g>
    </g>
</svg>