<?xml version="1.0" encoding="UTF-8"?>
<svg width="16px" height="16px" viewBox="0 0 16 16" version="1.1" xmlns="http://www.w3.org/2000/svg" xmlns:xlink="http://www.w3.org/1999/xlink">
    <!-- Generator: Sketch 53.2 (72643) - https://sketchapp.com -->
    <title>Search@3x</title>
    <desc>Created with Sketch.</desc>
    <g id="Screens" stroke="none" stroke-width="1" fill="none" fill-rule="evenodd" opacity="0.5">
        <g id="Test" transform="translate(-234.000000, -33.000000)" fill="#FFFFFF">
            <g id="Navigation">
                <g id="Top" transform="translate(30.000000, 30.000000)">
                    <path d="M219.608425,16.7175365 L216.132507,13.2416824 C216.114034,13.2232094 216.092365,13.2102975 216.073061,13.193103 C216.757007,12.1556138 217.156189,10.9137077 217.156189,9.57815846 C217.156189,5.94512448 214.211065,3 210.578095,3 C206.945124,3 204,5.94512448 204,9.57809454 C204,13.2110007 206.945061,16.1561891 210.578031,16.1561891 C211.913644,16.1561891 213.155486,15.7570073 214.192975,15.0730608 C214.21017,15.0923008 214.223018,15.1139698 214.241491,15.1324427 L217.717473,18.6084247 C218.239637,19.1305251 219.086196,19.1305251 219.608425,18.6084247 C220.130525,18.0862603 220.130525,17.2397009 219.608425,16.7175365 Z M210.578095,13.875771 C208.204481,13.875771 206.280354,11.9516443 206.280354,9.57809454 C206.280354,7.20448081 208.204545,5.28035412 210.578095,5.28035412 C212.95158,5.28035412 214.875771,7.20454473 214.875771,9.57809454 C214.875771,11.9516443 212.95158,13.875771 210.578095,13.875771 Z" id="Search"></path>
                </g>
            </g>
        </g>
    </g>
</svg>